<?xml version="1.0" encoding="UTF-8" standalone="no"?>
<svg
   xmlns:dc="http://purl.org/dc/elements/1.1/"
   xmlns:cc="http://creativecommons.org/ns#"
   xmlns:rdf="http://www.w3.org/1999/02/22-rdf-syntax-ns#"
   xmlns:svg="http://www.w3.org/2000/svg"
   xmlns="http://www.w3.org/2000/svg"
   xmlns:sodipodi="http://sodipodi.sourceforge.net/DTD/sodipodi-0.dtd"
   xmlns:inkscape="http://www.inkscape.org/namespaces/inkscape"
   inkscape:version="1.0.1 (3bc2e813f5, 2020-09-07)"
   id="svg8"
   version="1.1"
   viewBox="0 0 33.866667 33.866667"
   height="128"
   width="128"
   sodipodi:docname="favicon.svg">
  <defs
     id="defs2" />
  <sodipodi:namedview
     inkscape:snap-page="true"
     inkscape:snap-text-baseline="true"
     inkscape:snap-bbox-midpoints="true"
     inkscape:snap-bbox-edge-midpoints="true"
     inkscape:bbox-nodes="true"
     inkscape:bbox-paths="true"
     inkscape:snap-bbox="true"
     inkscape:object-paths="true"
     inkscape:snap-intersection-paths="true"
     inkscape:snap-smooth-nodes="true"
     inkscape:snap-midpoints="true"
     inkscape:snap-center="true"
     inkscape:snap-object-midpoints="true"
     inkscape:window-maximized="1"
     inkscape:window-y="-8"
     inkscape:window-x="1912"
     inkscape:window-height="1377"
     inkscape:window-width="2560"
     gridtolerance="10"
     inkscape:snap-tangential="true"
     inkscape:snap-perpendicular="true"
     guidetolerance="20"
     inkscape:snap-path-mask="true"
     inkscape:snap-path-clip="true"
     objecttolerance="20"
     inkscape:showpageshadow="true"
     borderlayer="true"
     inkscape:pagecheckerboard="true"
     width="1080px"
     units="px"
     showgrid="false"
     inkscape:document-rotation="0"
     inkscape:current-layer="layer1"
     inkscape:document-units="px"
     inkscape:cy="60.987465"
     inkscape:cx="122.81029"
     inkscape:zoom="4.7704502"
     inkscape:pageshadow="2"
     inkscape:pageopacity="0.0"
     borderopacity="1.0"
     bordercolor="#666666"
     pagecolor="#ffffff"
     id="base" />
  <metadata
     id="metadata5">
    <rdf:RDF>
      <cc:Work
         rdf:about="">
        <dc:format>image/svg+xml</dc:format>
        <dc:type
           rdf:resource="http://purl.org/dc/dcmitype/StillImage" />
        <dc:title></dc:title>
      </cc:Work>
    </rdf:RDF>
  </metadata>
  <g
     id="layer1"
     inkscape:groupmode="layer"
     inkscape:label="favicon">
    <path
       id="path5842"
       style="fill:#ff6565;fill-opacity:1;fill-rule:evenodd;stroke-width:0.264583"
       d="M 33.866665,16.933332 A 16.933332,16.933332 0 0 1 16.933332,33.866665 16.933332,16.933332 0 0 1 0,16.933332 16.933332,16.933332 0 0 1 16.933332,0 16.933332,16.933332 0 0 1 33.866665,16.933332 Z" />
    <g
       aria-label="JC"
       transform="matrix(1.0710005,0,0,1.1222835,-1.6313964,-1.6313933)"
       id="text1470"
       style="font-size:25.4px;line-height:1.25;font-family:Lemonada;-inkscape-font-specification:Lemonada;letter-spacing:0px;word-spacing:0px;display:inline;fill:#0c2511;fill-opacity:1;stroke:#0c2511;stroke-width:0;stroke-linecap:butt;stroke-linejoin:round;stroke-miterlimit:4;stroke-dasharray:none;stroke-dashoffset:0;stroke-opacity:1;paint-order:normal">
      <path
         d="m 5.7599654,22.862031 -0.0254,0.6096 q 0,0.1524 0.0508,0.6096 0.2286,0.2794 0.4826,0.127 0.2032,-0.127 0.9144,-0.7112 1.1684,-1.7526 1.9304,-3.4544 1.7525996,-3.9878 2.4891996,-6.8072 0.2286,-0.8382 0.4318,-1.651 0.2286,-0.8128 0.4318,-1.6509997 0.2286,-0.8635999 0.508,-1.7779999 v -0.1016 q 0.4318,-1.4986 2.2098,-2.3368 1.7018,-0.8382 2.921,-0.254 0.5842,0.2794 0.8382,0.9652 0.254,0.6604 -0.0508,1.8034 -0.5842,1.7525999 -1.1684,3.6829996 -0.5842,1.9304 -1.2446,3.8862 -0.6604,1.9304 -1.4732,3.7846 -0.8128,1.8542 -1.8796,3.4036 -2.3622,3.4544 -5.5879996,4.572 -0.3556,0.1524 -0.6096,0.1778 -0.2286,0.0254 -0.6858,0.0762 -0.4572,0.0762 -1.1684,0.0254 -0.6858,-0.0254 -1.3461999,-0.2286 -1.524,-0.4318 -1.8796,-1.524 -0.4064,-1.524 -0.3048,-2.2098 0.0762,-0.7112 0.2794,-1.143 0.2032,-0.4318 0.508,-0.9144 h 0.0254 q 0.2286,-0.4318 0.7112,-0.7366 0.508,-0.3048 1.0414,-0.381 0.5587999,-0.1016 1.0159999,0.0762 0.4826,0.1778 0.635,0.6858 0.0254,0.2794 0.0254,0.7112 0,0.4318 -0.0254,0.6858 z"
         style="font-style:normal;font-variant:normal;font-weight:normal;font-stretch:normal;font-size:25.4px;font-family:Knewave;-inkscape-font-specification:Knewave;fill:#0c2511;fill-opacity:1;stroke:#0c2511;stroke-width:0;stroke-linecap:butt;stroke-linejoin:round;stroke-miterlimit:4;stroke-dasharray:none;stroke-dashoffset:0;stroke-opacity:1;paint-order:normal"
         id="path5844" />
      <path
         d="m 27.680138,12.778231 q 0,-0.762 -0.5334,-0.762 -0.2032,0 -0.4826,0.1016 -0.2794,0.1016 -0.5334,0.1778 -0.9398,0.508 -1.4732,1.1176 -0.508,0.5842 -1.0414,1.3208 -0.5334,0.7366 -0.9144,1.5748 -0.381,0.8382 -0.5842,1.5748 -0.7366,2.7178 0.5588,3.6576 0.5334,0.381 1.1176,0.381 0.6096,-0.0254 0.9652,-0.254 0.381,-0.2286 0.7366,-0.4318 0.3556,-0.2032 0.8128,-0.2794 0.4826,-0.1016 1.1684,0.127 0.7112,0.2032 0.762,0.5588 0.0508,0.3556 0,0.7366 -0.0508,0.381 -0.0254,0.6858 0.0508,0.3048 0.5588,0.381 0.4826,0.6096 -0.6096,1.4732 -0.2794,0.2286 -0.5334,0.4318 -2.1844,1.397 -4.6482,1.5494 -1.5494,0.1016 -3.302,-0.5588 -2.6162,-0.9906 -2.9464,-4.445 -0.4318,-3.2004 0.8128,-6.6294 1.0414,-2.8956 3.1496,-5.3593997 1.905,-2.2605999 3.7592,-2.9463999 2.2098,-1.143 4.7752,-0.889 2.7178,0.3556 3.556,2.3114 0.8382,1.9557996 -0.2794,4.6989996 -0.381,0.9652 -1.4478,1.524 -0.9144,0.508 -1.9812,0.508 -1.0668,0 -1.3716,-0.6604 -0.3048,-0.6858 -0.0254,-1.6764 z"
         style="font-style:normal;font-variant:normal;font-weight:normal;font-stretch:normal;font-size:25.4px;font-family:Knewave;-inkscape-font-specification:Knewave;fill:#0c2511;fill-opacity:1;stroke:#0c2511;stroke-width:0;stroke-linecap:butt;stroke-linejoin:round;stroke-miterlimit:4;stroke-dasharray:none;stroke-dashoffset:0;stroke-opacity:1;paint-order:normal"
         id="path5846" />
    </g>
  </g>
  <inkscape:templateinfo>
    <inkscape:name>Mobile 16:9</inkscape:name>
    <inkscape:date>2020-07-27</inkscape:date>
  </inkscape:templateinfo>
  <inkscape:templateinfo>
    <inkscape:name>Mobile 16:9</inkscape:name>
    <inkscape:date>2020-07-27</inkscape:date>
  </inkscape:templateinfo>
  <inkscape:templateinfo>
    <inkscape:name>Mobile 16:9</inkscape:name>
    <inkscape:date>2020-07-27</inkscape:date>
  </inkscape:templateinfo>
</svg>
