<?xml version="1.0" encoding="UTF-8"?>
<svg width="512" height="512" version="1.1" viewBox="0 0 512 512" xmlns="http://www.w3.org/2000/svg" xmlns:cc="http://creativecommons.org/ns#" xmlns:dc="http://purl.org/dc/elements/1.1/" xmlns:rdf="http://www.w3.org/1999/02/22-rdf-syntax-ns#">
 <metadata>
  <rdf:RDF>
   <cc:Work rdf:about="">
    <dc:format>image/svg+xml</dc:format>
    <dc:type rdf:resource="http://purl.org/dc/dcmitype/StillImage"/>
    <dc:title/>
   </cc:Work>
  </rdf:RDF>
 </metadata>
 <path d="m512 256a256 256 0 0 1-256 256 256 256 0 0 1-256-256 256 256 0 0 1 256-256 256 256 0 0 1 256 256z" fill="#ff6565" fill-rule="evenodd" stroke-width="0"/>
 <g transform="matrix(1.1799 0 0 1.1799 414.58 256.89)" fill="#0e1526">
  <g transform="translate(-391.91,-250.74)" fill="#0e1526">
   <g transform="matrix(12.637,0,0,13.241,55.625,44.234)" stroke-width="0" style="paint-order:normal" aria-label="JC">
    <path d="m5.76 22.862-0.0254 0.6096q0 0.1524 0.0508 0.6096 0.2286 0.2794 0.4826 0.127 0.2032-0.127 0.9144-0.7112 1.1684-1.7526 1.9304-3.4544 1.7526-3.9878 2.4892-6.8072 0.2286-0.8382 0.4318-1.651 0.2286-0.8128 0.4318-1.651 0.2286-0.8636 0.508-1.778v-0.1016q0.4318-1.4986 2.2098-2.3368 1.7018-0.8382 2.921-0.254 0.5842 0.2794 0.8382 0.9652 0.254 0.6604-0.0508 1.8034-0.5842 1.7526-1.1684 3.683t-1.2446 3.8862q-0.6604 1.9304-1.4732 3.7846t-1.8796 3.4036q-2.3622 3.4544-5.588 4.572-0.3556 0.1524-0.6096 0.1778-0.2286 0.0254-0.6858 0.0762-0.4572 0.0762-1.1684 0.0254-0.6858-0.0254-1.3462-0.2286-1.524-0.4318-1.8796-1.524-0.4064-1.524-0.3048-2.2098 0.0762-0.7112 0.2794-1.143t0.508-0.9144h0.0254q0.2286-0.4318 0.7112-0.7366 0.508-0.3048 1.0414-0.381 0.5588-0.1016 1.016 0.0762 0.4826 0.1778 0.635 0.6858 0.0254 0.2794 0.0254 0.7112t-0.0254 0.6858z" style="paint-order:normal"/>
    <path d="m27.68 12.778q0-0.762-0.5334-0.762-0.2032 0-0.4826 0.1016t-0.5334 0.1778q-0.9398 0.508-1.4732 1.1176-0.508 0.5842-1.0414 1.3208t-0.9144 1.5748-0.5842 1.5748q-0.7366 2.7178 0.5588 3.6576 0.5334 0.381 1.1176 0.381 0.6096-0.0254 0.9652-0.254 0.381-0.2286 0.7366-0.4318t0.8128-0.2794q0.4826-0.1016 1.1684 0.127 0.7112 0.2032 0.762 0.5588t0 0.7366-0.0254 0.6858q0.0508 0.3048 0.5588 0.381 0.4826 0.6096-0.6096 1.4732-0.2794 0.2286-0.5334 0.4318-2.1844 1.397-4.6482 1.5494-1.5494 0.1016-3.302-0.5588-2.6162-0.9906-2.9464-4.445-0.4318-3.2004 0.8128-6.6294 1.0414-2.8956 3.1496-5.3594 1.905-2.2606 3.7592-2.9464 2.2098-1.143 4.7752-0.889 2.7178 0.3556 3.556 2.3114t-0.2794 4.699q-0.381 0.9652-1.4478 1.524-0.9144 0.508-1.9812 0.508t-1.3716-0.6604q-0.3048-0.6858-0.0254-1.6764z" style="paint-order:normal"/>
   </g>
   <g stroke-width="3.7795">
    <path transform="translate(-388.88,-249.22)" d="m762.7 535.99-74.469 40.891-27.857-20.57-27.793 23.969 39.115 46.66 129.66-46.902z"/>
    <path d="m290.15 120.93-36.83-40.594-28.123 21.931-5.6214 48.617"/>
    <path transform="translate(-388.88,-249.22)" d="m813.05 349.74-28.123 21.932-6.0781 54.994-19.451 16.773 37.188 44.609 12.838-47.334-11.777-11.254 54.121-36.947z"/>
    <path transform="translate(-388.88,-249.22)" d="m476.93 530.81-28.123 21.932-11.707 53.24 35.764 42.008 50.596-23.348 44.688-19.943z"/>
   </g>
  </g>
 </g>
 <g transform="matrix(14.91 0 0 15.623 -22.713 -33.6)" fill="#74c7ad" stroke-width="0" style="paint-order:normal" aria-label="JC">
  <path d="m5.76 22.862-0.0254 0.6096q0 0.1524 0.0508 0.6096 0.2286 0.2794 0.4826 0.127 0.2032-0.127 0.9144-0.7112 1.1684-1.7526 1.9304-3.4544 1.7526-3.9878 2.4892-6.8072 0.2286-0.8382 0.4318-1.651 0.2286-0.8128 0.4318-1.651 0.2286-0.8636 0.508-1.778v-0.1016q0.4318-1.4986 2.2098-2.3368 1.7018-0.8382 2.921-0.254 0.5842 0.2794 0.8382 0.9652 0.254 0.6604-0.0508 1.8034-0.5842 1.7526-1.1684 3.683t-1.2446 3.8862q-0.6604 1.9304-1.4732 3.7846t-1.8796 3.4036q-2.3622 3.4544-5.588 4.572-0.3556 0.1524-0.6096 0.1778-0.2286 0.0254-0.6858 0.0762-0.4572 0.0762-1.1684 0.0254-0.6858-0.0254-1.3462-0.2286-1.524-0.4318-1.8796-1.524-0.4064-1.524-0.3048-2.2098 0.0762-0.7112 0.2794-1.143t0.508-0.9144h0.0254q0.2286-0.4318 0.7112-0.7366 0.508-0.3048 1.0414-0.381 0.5588-0.1016 1.016 0.0762 0.4826 0.1778 0.635 0.6858 0.0254 0.2794 0.0254 0.7112t-0.0254 0.6858z" style="paint-order:normal"/>
  <path d="m27.68 12.778q0-0.762-0.5334-0.762-0.2032 0-0.4826 0.1016t-0.5334 0.1778q-0.9398 0.508-1.4732 1.1176-0.508 0.5842-1.0414 1.3208t-0.9144 1.5748-0.5842 1.5748q-0.7366 2.7178 0.5588 3.6576 0.5334 0.381 1.1176 0.381 0.6096-0.0254 0.9652-0.254 0.381-0.2286 0.7366-0.4318t0.8128-0.2794q0.4826-0.1016 1.1684 0.127 0.7112 0.2032 0.762 0.5588t0 0.7366-0.0254 0.6858q0.0508 0.3048 0.5588 0.381 0.4826 0.6096-0.6096 1.4732-0.2794 0.2286-0.5334 0.4318-2.1844 1.397-4.6482 1.5494-1.5494 0.1016-3.302-0.5588-2.6162-0.9906-2.9464-4.445-0.4318-3.2004 0.8128-6.6294 1.0414-2.8956 3.1496-5.3594 1.905-2.2606 3.7592-2.9464 2.2098-1.143 4.7752-0.889 2.7178 0.3556 3.556 2.3114t-0.2794 4.699q-0.381 0.9652-1.4478 1.524-0.9144 0.508-1.9812 0.508t-1.3716-0.6604q-0.3048-0.6858-0.0254-1.6764z" style="paint-order:normal"/>
 </g>
</svg>
