<?xml version="1.0" encoding="UTF-8"?>
<svg width="128" height="128" version="1.1" viewBox="0 0 33.867 33.867" xmlns="http://www.w3.org/2000/svg" xmlns:cc="http://creativecommons.org/ns#" xmlns:dc="http://purl.org/dc/elements/1.1/" xmlns:rdf="http://www.w3.org/1999/02/22-rdf-syntax-ns#">
 <metadata>
  <rdf:RDF>
   <cc:Work rdf:about="">
    <dc:format>image/svg+xml</dc:format>
    <dc:type rdf:resource="http://purl.org/dc/dcmitype/StillImage"/>
    <dc:title/>
   </cc:Work>
  </rdf:RDF>
 </metadata>
 <path d="m32.969 16.853a16.484 16.484 0 0 1-16.484 16.484 16.484 16.484 0 0 1-16.484-16.484 16.484 16.484 0 0 1 16.484-16.484 16.484 16.484 0 0 1 16.484 16.484z" fill="#ff6565" fill-rule="evenodd" stroke-width="0"/>
 <g transform="matrix(.97942 0 0 1.0263 1.4042 1.0406)" style="paint-order:normal" aria-label="JC">
  <path d="m5.76 22.862-0.0254 0.6096q0 0.1524 0.0508 0.6096 0.2286 0.2794 0.4826 0.127 0.2032-0.127 0.9144-0.7112 1.1684-1.7526 1.9304-3.4544 1.7526-3.9878 2.4892-6.8072 0.2286-0.8382 0.4318-1.651 0.2286-0.8128 0.4318-1.651 0.2286-0.8636 0.508-1.778v-0.1016q0.4318-1.4986 2.2098-2.3368 1.7018-0.8382 2.921-0.254 0.5842 0.2794 0.8382 0.9652 0.254 0.6604-0.0508 1.8034-0.5842 1.7526-1.1684 3.683t-1.2446 3.8862q-0.6604 1.9304-1.4732 3.7846t-1.8796 3.4036q-2.3622 3.4544-5.588 4.572-0.3556 0.1524-0.6096 0.1778-0.2286 0.0254-0.6858 0.0762-0.4572 0.0762-1.1684 0.0254-0.6858-0.0254-1.3462-0.2286-1.524-0.4318-1.8796-1.524-0.4064-1.524-0.3048-2.2098 0.0762-0.7112 0.2794-1.143t0.508-0.9144h0.0254q0.2286-0.4318 0.7112-0.7366 0.508-0.3048 1.0414-0.381 0.5588-0.1016 1.016 0.0762 0.4826 0.1778 0.635 0.6858 0.0254 0.2794 0.0254 0.7112t-0.0254 0.6858z" style="paint-order:normal"/>
  <path d="m27.68 12.778q0-0.762-0.5334-0.762-0.2032 0-0.4826 0.1016t-0.5334 0.1778q-0.9398 0.508-1.4732 1.1176-0.508 0.5842-1.0414 1.3208t-0.9144 1.5748-0.5842 1.5748q-0.7366 2.7178 0.5588 3.6576 0.5334 0.381 1.1176 0.381 0.6096-0.0254 0.9652-0.254 0.381-0.2286 0.7366-0.4318t0.8128-0.2794q0.4826-0.1016 1.1684 0.127 0.7112 0.2032 0.762 0.5588t0 0.7366-0.0254 0.6858q0.0508 0.3048 0.5588 0.381 0.4826 0.6096-0.6096 1.4732-0.2794 0.2286-0.5334 0.4318-2.1844 1.397-4.6482 1.5494-1.5494 0.1016-3.302-0.5588-2.6162-0.9906-2.9464-4.445-0.4318-3.2004 0.8128-6.6294 1.0414-2.8956 3.1496-5.3594 1.905-2.2606 3.7592-2.9464 2.2098-1.143 4.7752-0.889 2.7178 0.3556 3.556 2.3114t-0.2794 4.699q-0.381 0.9652-1.4478 1.524-0.9144 0.508-1.9812 0.508t-1.3716-0.6604q-0.3048-0.6858-0.0254-1.6764z" style="paint-order:normal"/>
 </g>
 <path d="m29.062 23.253-2.9961-3.4139-5.7718 3.1692 2.3909 2.1776"/>
 <path d="m19.581 6.9848-2.8546-3.1463-2.1797 1.6998-0.43569 3.7681"/>
 <path d="m32.969 8.7188-3.0008-3.3153-2.1797 1.6998-0.61604 5.5725"/>
 <path d="m8.9883 24.256-5.0717-4.8185-2.1797 1.6998 5.7861 5.5727"/>
 <path d="m2.9838 23.406-2.1542 1.8578 2.7719 3.2559 1.1054-3.4671"/>
 <path d="m18.135 21.414-2.1542 1.8578 3.0317 3.6164 0.8457-3.8276"/>
 <path d="m27.964 10.808-2.1542 1.8578 2.8822 3.4575 0.99513-3.6687"/>
 <g transform="matrix(.97942 0 0 1.0263 -1.4919 -2.1534)" fill="#74c7ad" style="paint-order:normal" aria-label="JC">
  <path d="m5.76 22.862-0.0254 0.6096q0 0.1524 0.0508 0.6096 0.2286 0.2794 0.4826 0.127 0.2032-0.127 0.9144-0.7112 1.1684-1.7526 1.9304-3.4544 1.7526-3.9878 2.4892-6.8072 0.2286-0.8382 0.4318-1.651 0.2286-0.8128 0.4318-1.651 0.2286-0.8636 0.508-1.778v-0.1016q0.4318-1.4986 2.2098-2.3368 1.7018-0.8382 2.921-0.254 0.5842 0.2794 0.8382 0.9652 0.254 0.6604-0.0508 1.8034-0.5842 1.7526-1.1684 3.683t-1.2446 3.8862q-0.6604 1.9304-1.4732 3.7846t-1.8796 3.4036q-2.3622 3.4544-5.588 4.572-0.3556 0.1524-0.6096 0.1778-0.2286 0.0254-0.6858 0.0762-0.4572 0.0762-1.1684 0.0254-0.6858-0.0254-1.3462-0.2286-1.524-0.4318-1.8796-1.524-0.4064-1.524-0.3048-2.2098 0.0762-0.7112 0.2794-1.143t0.508-0.9144h0.0254q0.2286-0.4318 0.7112-0.7366 0.508-0.3048 1.0414-0.381 0.5588-0.1016 1.016 0.0762 0.4826 0.1778 0.635 0.6858 0.0254 0.2794 0.0254 0.7112t-0.0254 0.6858z" style="paint-order:normal"/>
  <path d="m27.68 12.778q0-0.762-0.5334-0.762-0.2032 0-0.4826 0.1016t-0.5334 0.1778q-0.9398 0.508-1.4732 1.1176-0.508 0.5842-1.0414 1.3208t-0.9144 1.5748-0.5842 1.5748q-0.7366 2.7178 0.5588 3.6576 0.5334 0.381 1.1176 0.381 0.6096-0.0254 0.9652-0.254 0.381-0.2286 0.7366-0.4318t0.8128-0.2794q0.4826-0.1016 1.1684 0.127 0.7112 0.2032 0.762 0.5588t0 0.7366-0.0254 0.6858q0.0508 0.3048 0.5588 0.381 0.4826 0.6096-0.6096 1.4732-0.2794 0.2286-0.5334 0.4318-2.1844 1.397-4.6482 1.5494-1.5494 0.1016-3.302-0.5588-2.6162-0.9906-2.9464-4.445-0.4318-3.2004 0.8128-6.6294 1.0414-2.8956 3.1496-5.3594 1.905-2.2606 3.7592-2.9464 2.2098-1.143 4.7752-0.889 2.7178 0.3556 3.556 2.3114t-0.2794 4.699q-0.381 0.9652-1.4478 1.524-0.9144 0.508-1.9812 0.508t-1.3716-0.6604q-0.3048-0.6858-0.0254-1.6764z" style="paint-order:normal"/>
 </g>
</svg>
