<?xml version="1.0" encoding="UTF-8" standalone="no"?>
<svg
   xmlns:dc="http://purl.org/dc/elements/1.1/"
   xmlns:cc="http://creativecommons.org/ns#"
   xmlns:rdf="http://www.w3.org/1999/02/22-rdf-syntax-ns#"
   xmlns:svg="http://www.w3.org/2000/svg"
   xmlns="http://www.w3.org/2000/svg"
   xmlns:sodipodi="http://sodipodi.sourceforge.net/DTD/sodipodi-0.dtd"
   xmlns:inkscape="http://www.inkscape.org/namespaces/inkscape"
   inkscape:version="1.0.1 (3bc2e813f5, 2020-09-07)"
   id="svg8"
   version="1.1"
   viewBox="0 0 155.67485 20.772701"
   height="78.510994"
   width="588.37738"
   sodipodi:docname="justin_carlson.svg">
  <defs
     id="defs2" />
  <sodipodi:namedview
     inkscape:snap-page="true"
     inkscape:snap-text-baseline="true"
     inkscape:snap-bbox-midpoints="true"
     inkscape:snap-bbox-edge-midpoints="true"
     inkscape:bbox-nodes="true"
     inkscape:bbox-paths="true"
     inkscape:snap-bbox="true"
     inkscape:object-paths="true"
     inkscape:snap-intersection-paths="true"
     inkscape:snap-smooth-nodes="true"
     inkscape:snap-midpoints="true"
     inkscape:snap-center="true"
     inkscape:snap-object-midpoints="true"
     inkscape:window-maximized="1"
     inkscape:window-y="-8"
     inkscape:window-x="1912"
     inkscape:window-height="1377"
     inkscape:window-width="2560"
     gridtolerance="10"
     inkscape:snap-tangential="true"
     inkscape:snap-perpendicular="true"
     guidetolerance="20"
     inkscape:snap-path-mask="true"
     inkscape:snap-path-clip="true"
     objecttolerance="20"
     inkscape:showpageshadow="true"
     borderlayer="true"
     inkscape:pagecheckerboard="true"
     width="1080px"
     units="px"
     showgrid="false"
     inkscape:document-rotation="0"
     inkscape:current-layer="layer1"
     inkscape:document-units="px"
     inkscape:cy="54.552587"
     inkscape:cx="354.61809"
     inkscape:zoom="2.3852251"
     inkscape:pageshadow="2"
     inkscape:pageopacity="0.0"
     borderopacity="1.0"
     bordercolor="#666666"
     pagecolor="#ffffff"
     id="base"
     fit-margin-top="0"
     fit-margin-left="0"
     fit-margin-right="0"
     fit-margin-bottom="0" />
  <metadata
     id="metadata5">
    <rdf:RDF>
      <cc:Work
         rdf:about="">
        <dc:format>image/svg+xml</dc:format>
        <dc:type
           rdf:resource="http://purl.org/dc/dcmitype/StillImage" />
        <dc:title></dc:title>
      </cc:Work>
    </rdf:RDF>
  </metadata>
  <g
     id="layer1"
     inkscape:groupmode="layer"
     inkscape:label="text"
     style="display:inline">
    <g
       aria-label="Justin Carlson"
       id="text2074"
       style="font-size:22.5778px;line-height:1.25;font-family:Lemonada;-inkscape-font-specification:Lemonada;letter-spacing:0px;word-spacing:0px;stroke-width:0.264583">
      <path
         d="m 3.7659772,16.329395 -0.022578,0.541867 q 0,0.135467 0.045156,0.541867 0.2032002,0.248356 0.4289782,0.112889 Q 4.3981556,17.413129 5.030334,16.89384 6.0689129,15.335972 6.7462469,13.823259 8.3041151,10.278544 8.9588714,7.7724083 9.1620716,7.0273409 9.342694,6.3048512 9.5458942,5.5823616 9.7265166,4.8372942 9.9297168,4.069649 10.178073,3.2568481 v -0.090311 q 0.383822,-1.3320902 1.964268,-2.0771576 1.512713,-0.74506745 2.596447,-0.22577804 0.51929,0.24835584 0.745068,0.85795644 0.225778,0.5870228 -0.04516,1.6030238 -0.519289,1.5578683 -1.038579,3.2737812 -0.519289,1.7159128 -1.106312,3.4544031 -0.587023,1.715913 -1.309512,3.364092 -0.72249,1.64818 -1.670758,3.025426 -2.0997351,3.070581 -4.9671158,4.064004 -0.3160892,0.135467 -0.5418672,0.158045 -0.2032002,0.02258 -0.6096006,0.06773 -0.4064004,0.06773 -1.0385788,0.02258 -0.6096007,-0.02258 -1.1966235,-0.2032 Q 0.60508507,20.167621 0.28899586,19.196775 -0.07224895,17.842107 0.01806225,17.232507 0.08579566,16.600328 0.26641806,16.216506 0.44704047,15.832683 0.71797408,15.403705 h 0.0225778 q 0.2032002,-0.383823 0.63217842,-0.654756 0.451556,-0.270934 0.9256898,-0.338667 0.4967116,-0.09031 0.9031121,0.06773 0.4289782,0.158045 0.564445,0.609601 0.022578,0.248356 0.022578,0.632178 0,0.383823 -0.022578,0.609601 z"
         style="font-style:normal;font-variant:normal;font-weight:normal;font-stretch:normal;font-size:22.5778px;font-family:Knewave;-inkscape-font-specification:Knewave;stroke-width:0.264583"
         id="path838" />
      <path
         d="m 16.048276,8.6980981 q 0.632178,-0.6096006 1.399824,-0.6999118 0.790223,-0.112889 1.377246,0.1580446 0.6096,0.2709336 0.880534,0.8805342 0.293511,0.5870229 -0.06773,1.3546679 -0.767645,1.12889 -1.219201,2.438403 -0.451556,1.309512 -0.835379,2.641602 2.077158,-1.309512 3.476982,-3.905959 0.4064,-0.767645 0.880534,-1.557868 l 0.338667,-0.6321789 0.677334,-1.0837344 q 0.135467,-0.4289782 0.474134,-0.5418672 0.338667,-0.1354668 0.72249,-0.1354668 0.4064,0 0.8128,0.022578 0.406401,0 0.745068,-0.225778 0.338667,-0.225778 0.790223,-0.1580446 0.474134,0.045156 0.835378,0.2935114 0.383823,0.2483558 0.564445,0.6096006 0.203201,0.338667 0.04516,0.677334 -0.948268,2.0320019 -2.596447,7.5635629 -0.383823,1.241779 -0.72249,2.077158 -0.564445,0.699912 -1.422401,0.948267 -0.857957,0.248356 -1.625602,0.135467 -0.745067,-0.09031 -1.196623,-0.519289 -0.451556,-0.406401 -0.2032,-1.038579 -0.632179,0.519289 -1.309513,0.948268 -0.677334,0.428978 -1.648179,0.564445 -0.948268,0.135466 -1.828802,-0.09031 -0.880534,-0.2032 -1.512713,-0.8128 -0.6096,-0.609601 -0.654756,-1.625602 -0.135467,-3.567293 2.822225,-8.2860527 z"
         style="font-style:normal;font-variant:normal;font-weight:normal;font-stretch:normal;font-size:22.5778px;font-family:Knewave;-inkscape-font-specification:Knewave;stroke-width:0.264583"
         id="path840" />
      <path
         d="m 34.96845,19.15162 q -0.880534,0.722489 -2.099736,1.083734 -1.196623,0.383823 -2.415824,0.406401 -1.219201,0.02258 -2.280358,-0.293512 -1.061157,-0.316089 -1.670757,-0.993423 -0.72249,-0.767645 -0.496712,-1.53529 0.112889,-0.31609 0.4064,-0.496712 0.270934,-0.180622 0.677334,-0.09031 0.270934,0.02258 0.383823,-0.135467 0.135467,-0.180622 0.225778,-0.383823 0.09031,-0.225778 0.2032,-0.4064 0.112889,-0.2032 0.361245,-0.2032 3.973693,0.112889 4.131738,-0.699912 -0.270934,-0.248356 -0.677334,-0.428978 -0.383823,-0.180623 -0.790223,-0.361245 -0.993424,-0.451556 -1.332091,-0.993423 -0.428978,-0.225778 -0.654756,-1.083735 -0.112889,-0.383822 -0.112889,-0.790223 0,-0.4064 0.135467,-0.745067 -0.06773,-0.880534 1.083734,-1.9416911 0.31609,-0.2935114 0.790223,-0.6321784 0.474134,-0.338667 1.422402,-0.6547562 0.948268,-0.3160892 1.873957,-0.451556 0.948268,-0.1580446 1.693335,-0.112889 0.767646,0.045156 1.083735,0.3612448 0.338667,0.3160892 0.519289,0.790223 0.2032,0.4741338 0.135467,0.9256898 -0.180622,1.0160011 -1.670757,1.3998241 -1.873958,0.270933 -1.806224,0.496711 0,0.04516 -0.158045,0.112889 1.738491,1.196624 2.415825,2.348091 0.92569,1.580447 0.270933,3.522137 0.112889,0.632179 -1.12889,1.580446 -0.293511,0.225778 -0.519289,0.406401 z"
         style="font-style:normal;font-variant:normal;font-weight:normal;font-stretch:normal;font-size:22.5778px;font-family:Knewave;-inkscape-font-specification:Knewave;stroke-width:0.264583"
         id="path842" />
      <path
         d="m 44.338207,1.7215577 0.02258,-0.090311 0.2032,-0.2032002 q 0.248356,-0.58702284 0.541868,-0.69991184 0.158044,-0.0451556 0.4064,-0.112889 0.248356,-0.0677334 0.654756,-0.33866701 0.158045,-0.31608922 0.654757,-0.27093361 0.496711,0.0225778 0.970845,0.31608921 0.496712,0.27093361 0.790223,0.76764525 0.316089,0.4967116 0.158045,1.0385788 -0.158045,0.5192894 -0.270934,0.790223 -0.09031,0.2483558 -0.2032,0.4741338 -0.09031,0.2257781 -0.248356,0.5192895 -0.135467,0.2709336 -0.361245,0.7450674 L 46.912077,6.21454 q -0.112889,0.2935115 -0.2032,0.3386671 -0.06773,0.045156 -0.135467,0.1580446 0.2032,-0.045156 0.338667,-0.067733 0.135467,-0.022578 0.270933,-0.045156 0.31609,-0.045156 0.72249,-0.090311 0.248356,0.045156 0.428978,0.045156 h 0.316089 q 0.270934,0 0.654757,0.1580446 0.383822,0.1354668 0.496711,0.4967116 0.112889,0.3612448 0.02258,0.7450674 -0.09031,0.3612448 -0.361245,0.677334 -0.270933,0.3160892 -0.699912,0.338667 -1.964268,0.5418673 -2.799647,0.5870229 l -0.135467,0.1580446 v 0.022578 q -0.225778,0.5418672 -0.496711,1.3772462 -0.248356,0.812801 -0.564445,1.783646 -0.293512,0.948268 -0.609601,1.986847 -0.316089,1.016001 -0.654756,1.964268 -1.083735,3.18347 -1.580446,3.454404 -0.180623,0.09031 -0.383823,0.112889 -0.180622,0.04515 -0.2032,0.06773 -0.790223,-0.04515 -1.309512,-0.316089 -0.51929,-0.270934 -0.699912,-0.51929 -0.180623,-0.248355 -0.09031,-0.564445 0.428978,-3.928537 1.715912,-8.602142 -0.451556,0 -0.632178,0.09031 -0.338667,0.180622 -0.812801,0.2032 h -0.02258 q -0.361244,-0.02258 -0.654756,-0.338667 -0.293511,-0.316089 -0.361245,-0.72249 -0.06773,-0.4064005 0.135467,-0.8353787 0.2032,-0.4289782 0.812801,-0.677334 0.72249,-0.2032002 1.061157,-0.338667 0.654756,-0.2709336 1.083734,-0.3838226 0.451556,-0.112889 0.496712,-0.1354668 0.06773,-0.045156 0.09031,-0.067733 0.06773,-0.045156 0.338667,-0.045156 0.135467,-0.6547562 0.270933,-1.3320903 0.135467,-0.677334 0.338667,-1.3772458 0.451556,-1.6256017 1.241779,-2.7996473 z"
         style="font-style:normal;font-variant:normal;font-weight:normal;font-stretch:normal;font-size:22.5778px;font-family:Knewave;-inkscape-font-specification:Knewave;stroke-width:0.264583"
         id="path844" />
      <path
         d="m 51.043788,8.8335649 q 0.293512,-0.7450674 1.399824,-1.016001 1.038579,-0.2709336 1.941691,0.067733 0.925689,0.3612448 0.835378,1.1740456 -0.248356,0.7902231 -0.632178,1.9416915 -0.361245,1.12889 -0.699912,2.325513 -0.903112,3.070581 -1.038579,4.334938 -0.338667,2.032002 -1.12889,2.190047 -0.225778,0.04516 -0.428978,0.06773 -0.496712,0.02258 -0.632178,0.270934 -0.135467,0.248356 -0.451556,0.361245 -0.31609,0.135466 -0.699912,0.112889 -0.361245,0 -0.745068,-0.180623 -0.383822,-0.158044 -0.654756,-0.474134 -0.632178,-0.767645 -0.248356,-2.05458 0.361245,-2.46098 1.828802,-6.25405 0.699912,-1.8739582 1.354668,-2.8673815 z M 55.310992,5.4468948 Q 54.20468,5.6726728 53.504768,5.311428 52.827434,4.9501832 52.714545,4.4534716 q -0.112889,-0.5192894 0.31609,-1.0611567 0.496711,-0.677334 1.490134,-0.8805342 0.451556,-0.045156 0.654757,-0.045156 0.2032,0 0.496711,0.090311 0.745068,0.067733 0.970846,0.6547562 0.316089,0.4967117 0.04516,1.1288901 -0.248355,0.6321784 -1.377246,1.1063122 z"
         style="font-style:normal;font-variant:normal;font-weight:normal;font-stretch:normal;font-size:22.5778px;font-family:Knewave;-inkscape-font-specification:Knewave;stroke-width:0.264583"
         id="path846" />
      <path
         d="m 59.081467,8.8335649 q 1.512712,-0.6096006 2.032002,-0.022578 0.270933,0.3160892 0.270933,0.8805343 v 0.112889 q 0.835379,-0.9708455 2.912537,-1.6256017 2.190046,-0.677334 3.612448,-0.3838226 1.85138,0.3838226 2.077158,2.4158251 0.180622,1.715913 -0.790224,4.357515 -0.316089,0.677334 -0.496711,1.106313 -0.158045,0.4064 -0.293512,0.745067 -0.293511,0.632178 -0.925689,1.512713 -0.361245,0.677334 -1.12889,1.038578 -0.745068,0.361245 -1.490135,0.406401 -0.72249,0.06773 -1.196624,-0.225778 -0.474134,-0.270934 -0.270933,-0.880534 0.519289,-1.399824 0.857956,-2.551292 0.338667,-1.151468 0.699912,-1.964269 0.338667,-1.151467 0.09031,-1.444979 -0.2032,-0.225778 -0.699912,0.06773 -0.428978,0.270933 -0.6096,0.632178 -0.406401,0.293511 -1.535291,2.348091 -0.316089,0.564445 -0.632178,1.12889 -0.293512,0.541868 -0.564445,1.016001 -0.248356,0.474134 -0.451556,0.790223 -0.180623,0.31609 -0.338667,0.406401 -0.135467,0.112889 -0.248356,0.135467 -0.09031,0.04516 -0.158045,0.09031 -0.06773,0.04516 -0.112889,0.293511 -0.09031,0.51929 -1.083734,0.767646 -1.603024,0.4064 -2.889959,-0.135467 -0.428978,-0.180623 -0.677334,-0.496712 -0.519289,-1.038579 1.783647,-7.066852 0.812801,-2.122313 1.061156,-2.5287134 0.564445,-0.8579565 0.72249,-0.9708455 0.180622,-0.112889 0.474134,0.045156 z"
         style="font-style:normal;font-variant:normal;font-weight:normal;font-stretch:normal;font-size:22.5778px;font-family:Knewave;-inkscape-font-specification:Knewave;stroke-width:0.264583"
         id="path848" />
      <path
         d="m 87.213333,7.3660079 q 0,-0.677334 -0.474133,-0.677334 -0.180623,0 -0.428979,0.090311 -0.248355,0.090311 -0.474133,0.1580446 -0.835379,0.451556 -1.309513,0.9934232 -0.451556,0.5192894 -0.92569,1.1740456 -0.474133,0.6547563 -0.8128,1.3998237 -0.338667,0.745068 -0.51929,1.399824 -0.654756,2.415825 0.496712,3.251203 0.474134,0.338667 0.993423,0.338667 0.541867,-0.02258 0.857956,-0.225778 0.338667,-0.2032 0.654757,-0.383822 0.316089,-0.180623 0.722489,-0.248356 0.428978,-0.09031 1.038579,0.112889 0.632178,0.180622 0.677334,0.496711 0.04516,0.31609 0,0.654757 -0.04516,0.338667 -0.02258,0.6096 0.04516,0.270934 0.496712,0.338667 0.428978,0.541867 -0.541867,1.309513 -0.248356,0.2032 -0.474134,0.383822 -1.941691,1.241779 -4.131738,1.377246 -1.377246,0.09031 -2.935114,-0.496712 -2.325513,-0.880534 -2.619025,-3.951115 -0.383822,-2.844803 0.72249,-5.8928058 0.92569,-2.5738693 2.799647,-4.763916 1.693335,-2.0094243 3.341515,-2.6190249 1.964268,-1.016001 4.244626,-0.790223 2.415825,0.3160892 3.160892,2.0545799 0.745068,1.7384906 -0.248355,4.1768931 -0.338667,0.8579564 -1.286935,1.354668 -0.812801,0.4515561 -1.761068,0.4515561 -0.948268,0 -1.219202,-0.5870229 -0.270933,-0.6096006 -0.02258,-1.4901348 z"
         style="font-style:normal;font-variant:normal;font-weight:normal;font-stretch:normal;font-size:22.5778px;font-family:Knewave;-inkscape-font-specification:Knewave;stroke-width:0.264583"
         id="path850" />
      <path
         d="m 100.35361,8.9238761 0.0903,0.022578 q 0.0452,0 0.0452,0.022578 0.58702,-0.225778 0.97085,0.338667 0.24835,0.3838227 0.38382,1.1740449 0.0452,1.083735 -0.22578,3.002848 -0.51929,3.883382 -0.56444,4.628449 0.0452,0.790223 -0.97085,1.083734 -0.880534,0.270934 -1.761068,-0.02258 -0.92569,-0.31609 -0.767645,-0.970846 -0.180623,0.338667 -0.361245,0.474134 -0.180622,0.158045 -0.72249,0.4064 -0.519289,0.270934 -1.490135,0.428979 -0.970845,0.180622 -1.94169,0.09031 -0.970846,-0.06773 -1.783647,-0.474134 -0.790223,-0.383823 -1.061156,-1.219201 -0.51929,-1.625602 0.135467,-4.131738 0.451556,-1.648179 1.625601,-2.912536 1.354668,-1.4449789 3.070581,-2.3932465 1.286935,-0.6999118 2.483558,-0.8353786 0.406401,-0.045156 0.699912,0.022578 0.316089,0.067733 0.654756,0.1354668 0.361245,0.067733 0.677334,0.2032002 0.812797,0.338667 0.812797,0.9256898 z m -4.176889,5.9831169 q 0.158045,-0.316089 0.248356,-0.790223 0.112889,-0.474134 0.293511,-1.038579 -1.828802,0.745068 -2.799647,1.828802 -1.061157,1.196624 0.135467,1.64818 1.038578,0.270933 1.512712,-0.338667 0.203201,-0.270934 0.361245,-0.677334 0.158045,-0.406401 0.383823,-0.835379 -0.06773,0.112889 -0.135467,0.2032 z"
         style="font-style:normal;font-variant:normal;font-weight:normal;font-stretch:normal;font-size:22.5778px;font-family:Knewave;-inkscape-font-specification:Knewave;stroke-width:0.264583"
         id="path852" />
      <path
         d="m 104.46276,9.2625431 q 0.31609,-0.8128008 0.88053,-1.2192012 0.58702,-0.4289782 1.10631,-0.5192894 0.54187,-0.112889 0.88054,0.112889 0.36124,0.225778 0.24835,0.6999118 0.42898,-0.4289782 1.24178,-0.790223 0.8128,-0.3612448 1.28694,-0.4967116 0.47413,-0.1354668 0.8128,-0.1354668 0.74507,0.045156 0.42898,0.8128008 0.38382,0.067733 0.56444,0.4967116 0.18062,0.4289782 0.0452,0.9482676 -0.13547,0.5192895 -0.6096,1.0160011 -0.47414,0.496712 -1.28694,0.677334 -0.79022,0.180622 -1.33209,0.835379 -0.51929,0.632178 -0.92569,1.580446 -0.67733,1.603024 -1.2192,4.538138 -0.18062,1.061156 -1.46756,1.783646 -1.2192,0.699912 -2.2352,0.4064 -1.15147,-0.316089 -1.016,-1.693335 0.0452,-0.970845 0.58702,-2.573869 0.54187,-1.625602 0.83538,-2.438403 0.29351,-0.835378 0.4064,-1.264356 z"
         style="font-style:normal;font-variant:normal;font-weight:normal;font-stretch:normal;font-size:22.5778px;font-family:Knewave;-inkscape-font-specification:Knewave;stroke-width:0.264583"
         id="path854" />
      <path
         d="m 115.50329,17.729218 q -0.13547,0.474134 -0.31609,0.835379 -0.18063,0.361245 -0.54187,0.677334 -0.36125,0.316089 -0.85796,0.587023 -0.49671,0.293511 -0.94826,0.4064 -1.03858,0.225778 -1.08374,-0.6096 -0.0677,-0.225778 -0.29351,-0.270934 -0.2032,-0.02258 -0.38382,-0.112889 -0.47414,-0.2032 -0.27094,-1.106312 0.36125,-1.241779 0.79023,-3.002848 0.42897,-1.783646 1.10631,-3.905959 1.60302,-5.1477388 3.97369,-9.2794763 0.15805,-0.2032002 0.36125,-0.5192894 0.2032,-0.338667 0.51929,-0.60960064 0.79022,-0.72248962 1.94169,-0.33866701 -0.0226,0.29351141 0.13546,0.54186725 0.15805,0.225778 0.36125,0.4741338 0.51929,0.5870228 0.47413,1.0611566 -2.39324,5.667028 -4.31236,12.6661467 -0.22578,0.8128 -0.36124,1.422401 -0.13547,0.609601 -0.29351,1.083734 z"
         style="font-style:normal;font-variant:normal;font-weight:normal;font-stretch:normal;font-size:22.5778px;font-family:Knewave;-inkscape-font-specification:Knewave;stroke-width:0.264583"
         id="path856" />
      <path
         d="m 125.88905,19.15162 q -0.88054,0.722489 -2.09974,1.083734 -1.19662,0.383823 -2.41582,0.406401 -1.2192,0.02258 -2.28036,-0.293512 -1.06116,-0.316089 -1.67076,-0.993423 -0.72249,-0.767645 -0.49671,-1.53529 0.11289,-0.31609 0.4064,-0.496712 0.27094,-0.180622 0.67734,-0.09031 0.27093,0.02258 0.38382,-0.135467 0.13547,-0.180622 0.22578,-0.383823 0.0903,-0.225778 0.2032,-0.4064 0.11289,-0.2032 0.36124,-0.2032 3.9737,0.112889 4.13174,-0.699912 -0.27093,-0.248356 -0.67733,-0.428978 -0.38383,-0.180623 -0.79023,-0.361245 -0.99342,-0.451556 -1.33209,-0.993423 -0.42898,-0.225778 -0.65475,-1.083735 -0.11289,-0.383822 -0.11289,-0.790223 0,-0.4064 0.13546,-0.745067 -0.0677,-0.880534 1.08374,-1.9416911 0.31609,-0.2935114 0.79022,-0.6321784 0.47414,-0.338667 1.4224,-0.6547562 0.94827,-0.3160892 1.87396,-0.451556 0.94827,-0.1580446 1.69334,-0.112889 0.76764,0.045156 1.08373,0.3612448 0.33867,0.3160892 0.51929,0.790223 0.2032,0.4741338 0.13547,0.9256898 -0.18063,1.0160011 -1.67076,1.3998241 -1.87396,0.270933 -1.80623,0.496711 0,0.04516 -0.15804,0.112889 1.73849,1.196624 2.41582,2.348091 0.92569,1.580447 0.27094,3.522137 0.11289,0.632179 -1.12889,1.580446 -0.29351,0.225778 -0.51929,0.406401 z"
         style="font-style:normal;font-variant:normal;font-weight:normal;font-stretch:normal;font-size:22.5778px;font-family:Knewave;-inkscape-font-specification:Knewave;stroke-width:0.264583"
         id="path858" />
      <path
         d="m 132.30111,8.9690317 q 0.47413,-0.338667 1.17404,-0.1580446 0.13547,0.022578 0.27094,0.022578 0.49671,-1.016001 1.71591,-1.0611566 0.31609,-0.022578 0.88054,-0.112889 0.56444,-0.090311 1.35466,0.045156 0.8128,0.1354668 1.4224,0.4741338 1.33209,0.7224896 1.60303,2.0771577 0.54187,1.986847 -0.15805,4.334938 -0.74506,2.596447 -2.52871,4.154315 -0.8128,0.72249 -1.71591,0.903112 -0.90311,0.203201 -1.6256,0.225778 -0.72249,0.02258 -1.33209,0 -0.58703,0 -1.15147,-0.112889 -1.2192,-0.248355 -2.00943,-1.151467 -0.92569,-1.016001 -0.79022,-3.160892 0.0903,-1.896536 0.94827,-3.815649 0.88053,-1.941691 1.94169,-2.6641813 z m 3.97369,4.5381383 q -0.56444,0.180622 -1.06115,0.158044 -0.24836,0.248356 -0.45156,0.541868 -0.18062,0.270933 -0.49671,0.519289 -0.31609,0.225778 -0.31609,0.180622 -0.38382,0.541868 -0.63218,1.12889 -0.24836,0.564445 0,1.151468 0.90311,0.09031 1.33209,-0.04516 0.42898,-0.135467 0.79022,-0.51929 0.38383,-0.383822 0.58703,-0.903112 0.4064,-0.970845 0.24835,-2.212624 z"
         style="font-style:normal;font-variant:normal;font-weight:normal;font-stretch:normal;font-size:22.5778px;font-family:Knewave;-inkscape-font-specification:Knewave;stroke-width:0.264583"
         id="path860" />
      <path
         d="m 144.74144,8.8335649 q 1.51272,-0.6096006 2.03201,-0.022578 0.27093,0.3160892 0.27093,0.8805343 v 0.112889 q 0.83538,-0.9708455 2.91254,-1.6256017 2.19004,-0.677334 3.61244,-0.3838226 1.85138,0.3838226 2.07716,2.4158251 0.18062,1.715913 -0.79022,4.357515 -0.31609,0.677334 -0.49671,1.106313 -0.15805,0.4064 -0.29351,0.745067 -0.29352,0.632178 -0.92569,1.512713 -0.36125,0.677334 -1.12889,1.038578 -0.74507,0.361245 -1.49014,0.406401 -0.72249,0.06773 -1.19662,-0.225778 -0.47414,-0.270934 -0.27094,-0.880534 0.51929,-1.399824 0.85796,-2.551292 0.33867,-1.151468 0.69991,-1.964269 0.33867,-1.151467 0.0903,-1.444979 -0.2032,-0.225778 -0.69991,0.06773 -0.42898,0.270933 -0.6096,0.632178 -0.4064,0.293511 -1.53529,2.348091 -0.31609,0.564445 -0.63218,1.12889 -0.29351,0.541868 -0.56444,1.016001 -0.24836,0.474134 -0.45156,0.790223 -0.18062,0.31609 -0.33867,0.406401 -0.13546,0.112889 -0.24835,0.135467 -0.0903,0.04516 -0.15805,0.09031 -0.0677,0.04516 -0.11289,0.293511 -0.0903,0.51929 -1.08373,0.767646 -1.60302,0.4064 -2.88996,-0.135467 -0.42898,-0.180623 -0.67733,-0.496712 -0.51929,-1.038579 1.78364,-7.066852 0.8128,-2.122313 1.06116,-2.5287134 0.56445,-0.8579565 0.72249,-0.9708455 0.18062,-0.112889 0.47413,0.045156 z"
         style="font-style:normal;font-variant:normal;font-weight:normal;font-stretch:normal;font-size:22.5778px;font-family:Knewave;-inkscape-font-specification:Knewave;stroke-width:0.264583"
         id="path862" />
    </g>
  </g>
  <inkscape:templateinfo>
    <inkscape:name>Mobile 16:9</inkscape:name>
    <inkscape:date>2020-07-27</inkscape:date>
  </inkscape:templateinfo>
  <inkscape:templateinfo>
    <inkscape:name>Mobile 16:9</inkscape:name>
    <inkscape:date>2020-07-27</inkscape:date>
  </inkscape:templateinfo>
  <inkscape:templateinfo>
    <inkscape:name>Mobile 16:9</inkscape:name>
    <inkscape:date>2020-07-27</inkscape:date>
  </inkscape:templateinfo>
</svg>
